<svg width="130" height="129" viewBox="0 0 130 129" fill="none" xmlns="http://www.w3.org/2000/svg">
<rect width="130" height="129" fill="white"/>
<path d="M47.54 94.6C47.5 94.6 47.46 94.5867 47.42 94.56C47.3933 94.5333 47.3867 94.5133 47.4 94.5C47.4933 94.38 47.5667 94.2467 47.62 94.1C47.6867 93.9667 47.7467 93.8267 47.8 93.68C47.6267 92.7467 47.3933 91.7733 47.1 90.76C46.82 89.7467 46.5133 88.7333 46.18 87.72C45.86 86.6933 45.5533 85.72 45.26 84.8C45.1667 84.8667 45.0667 85.0267 44.96 85.28C44.8667 85.5333 44.8 85.72 44.76 85.84C44.5867 86.2933 44.38 86.8267 44.14 87.44C43.9133 88.04 43.6533 88.6667 43.36 89.32C43.08 89.96 42.76 90.5933 42.4 91.22C42.0533 91.8333 41.6667 92.3933 41.24 92.9C41.04 93.1533 40.7667 93.38 40.42 93.58C40.0733 93.7667 39.7133 93.9133 39.34 94.02C38.9667 94.14 38.6267 94.2 38.32 94.2C37.9067 94.2 37.5067 94.0867 37.12 93.86C36.7467 93.62 36.4667 93.26 36.28 92.78C36.2267 92.6067 36.1867 92.4267 36.16 92.24C36.1333 92.04 36.12 91.8467 36.12 91.66C36.12 91.4733 36.1533 91.38 36.22 91.38C36.2867 91.38 36.32 91.4333 36.32 91.54C36.32 92.1667 36.4933 92.6867 36.84 93.1C37.1867 93.5133 37.6 93.72 38.08 93.72C38.5467 93.72 39.0133 93.6067 39.48 93.38C39.9467 93.1533 40.3667 92.84 40.74 92.44C41.34 91.7733 41.8467 91.0667 42.26 90.32C42.6733 89.5733 43.04 88.8 43.36 88C43.68 87.2 44.0067 86.4 44.34 85.6C44.54 85.0933 44.82 84.6533 45.18 84.28C45.54 83.9067 45.96 83.6733 46.44 83.58H45.34C44.8733 83.58 44.38 83.6 43.86 83.64C43.34 83.68 42.8667 83.7667 42.44 83.9C42.0133 84.0333 41.7067 84.2333 41.52 84.5C41.4133 84.66 41.36 84.8533 41.36 85.08C41.36 85.32 41.42 85.5467 41.54 85.76C41.66 85.9733 41.8133 86.1267 42 86.22C42.0267 86.2467 42.04 86.26 42.04 86.26C42.04 86.3 42.0067 86.34 41.94 86.38C41.8867 86.4067 41.8267 86.4133 41.76 86.4C41.6533 86.3333 41.52 86.2267 41.36 86.08C41.2 85.92 41.0533 85.7533 40.92 85.58C40.8 85.4067 40.72 85.26 40.68 85.14C40.6267 84.98 40.6 84.82 40.6 84.66C40.6 84.34 40.7133 84.08 40.94 83.88C41.18 83.68 41.4867 83.5267 41.86 83.42C42.2333 83.3133 42.6333 83.24 43.06 83.2C43.5 83.1467 43.92 83.12 44.32 83.12C44.72 83.1067 45.0667 83.1 45.36 83.1H47.78C47.8467 83.0867 47.8467 83.1333 47.78 83.24C47.7267 83.3467 47.6533 83.4533 47.56 83.56C47.48 83.6533 47.4133 83.7 47.36 83.7C47.2267 83.6867 47.02 83.7133 46.74 83.78C46.4733 83.8333 46.2867 83.9 46.18 83.98C46.22 84.4867 46.3133 85.08 46.46 85.76C46.62 86.44 46.8067 87.16 47.02 87.92C47.2333 88.6667 47.4667 89.42 47.72 90.18C47.9867 90.9267 48.2467 91.6267 48.5 92.28C48.7133 91.7733 48.9533 91.1533 49.22 90.42C49.4867 89.6867 49.7667 88.9067 50.06 88.08C50.3667 87.2533 50.68 86.4533 51 85.68C51.3333 84.8933 51.66 84.1933 51.98 83.58C52.3133 82.9667 52.64 82.5133 52.96 82.22C53.12 82.0733 53.3133 81.96 53.54 81.88C53.7667 81.7867 53.98 81.74 54.18 81.74C54.3667 81.74 54.5267 81.7867 54.66 81.88C54.7933 81.96 54.8533 82.0933 54.84 82.28L54.82 83C54.82 83.0133 54.7867 83.0267 54.72 83.04C54.6533 83.0533 54.6267 83.0533 54.64 83.04C54.6533 82.8667 54.5867 82.7467 54.44 82.68C54.2933 82.6 54.1733 82.56 54.08 82.56C53.8 82.5467 53.5 82.72 53.18 83.08C52.8733 83.44 52.5533 83.9133 52.22 84.5C51.8867 85.0867 51.56 85.7333 51.24 86.44C50.92 87.1333 50.6133 87.8333 50.32 88.54C50.04 89.2333 49.7867 89.8733 49.56 90.46C49.3333 91.0467 49.1467 91.5067 49 91.84C48.8667 92.12 48.8 92.3933 48.8 92.66C48.8 92.7 48.8 92.74 48.8 92.78C48.8 92.82 48.8067 92.86 48.82 92.9C48.82 92.9533 48.8267 93.0133 48.84 93.08C48.8667 93.1467 48.8867 93.2133 48.9 93.28C48.9 93.2933 48.9 93.3067 48.9 93.32C48.9133 93.3333 48.92 93.3533 48.92 93.38C48.92 93.4867 48.8667 93.58 48.76 93.66C48.6267 93.7533 48.48 93.8333 48.32 93.9C48.2267 93.94 48.0933 94.04 47.92 94.2C47.76 94.3733 47.66 94.4933 47.62 94.56C47.5933 94.5867 47.5667 94.6 47.54 94.6ZM52.2341 94.16C51.6874 94.16 51.3074 94.0533 51.0941 93.84C50.8807 93.6267 50.7741 93.3667 50.7741 93.06C50.7741 92.6733 50.8741 92.26 51.0741 91.82C51.2874 91.38 51.4874 91.0067 51.6741 90.7C51.8874 90.38 52.1741 90.0467 52.5341 89.7C52.8941 89.3533 53.2874 89.06 53.7141 88.82C54.1407 88.58 54.5541 88.46 54.9541 88.46C55.3007 88.46 55.5407 88.5467 55.6741 88.72C55.8074 88.88 55.8741 89.0733 55.8741 89.3C55.8741 89.7133 55.7474 90.0533 55.4941 90.32C55.2541 90.5867 54.9541 90.8067 54.5941 90.98C54.2341 91.14 53.8874 91.2733 53.5541 91.38C53.3541 91.4333 53.1207 91.4867 52.8541 91.54C52.5874 91.5933 52.3341 91.62 52.0941 91.62C52.0007 91.86 51.9274 92.0933 51.8741 92.32C51.8207 92.5467 51.7941 92.7533 51.7941 92.94C51.7941 93.1667 51.8474 93.3533 51.9541 93.5C52.0741 93.6467 52.2674 93.72 52.5341 93.72C52.6407 93.72 52.7674 93.7067 52.9141 93.68C53.0607 93.6533 53.2207 93.6133 53.3941 93.56C53.7941 93.4267 54.1874 93.2133 54.5741 92.92C54.9607 92.6267 55.3141 92.3133 55.6341 91.98C55.9674 91.6333 56.2207 91.3467 56.3941 91.12C56.4341 91.16 56.4541 91.2067 56.4541 91.26C56.4541 91.3267 56.4074 91.4333 56.3141 91.58C56.0474 91.9533 55.7007 92.34 55.2741 92.74C54.8474 93.14 54.3741 93.48 53.8541 93.76C53.3341 94.0267 52.7941 94.16 52.2341 94.16ZM52.2541 91.22C52.4274 91.2333 52.6207 91.2333 52.8341 91.22C53.0607 91.1933 53.2807 91.1467 53.4941 91.08C54.0407 90.92 54.4341 90.6667 54.6741 90.32C54.9274 89.96 55.0541 89.64 55.0541 89.36C55.0541 89.2 55.0207 89.0667 54.9541 88.96C54.8874 88.8533 54.7807 88.8 54.6341 88.8C54.2474 88.8 53.9007 88.9467 53.5941 89.24C53.2874 89.52 53.0207 89.8467 52.7941 90.22C52.5674 90.5933 52.3874 90.9267 52.2541 91.22ZM64.8345 94.46C64.5012 94.46 64.1612 94.3533 63.8145 94.14C63.4812 93.94 63.1412 93.6133 62.7945 93.16C62.3679 92.5733 62.0079 92.0133 61.7145 91.48C61.4212 90.9467 61.1812 90.48 60.9945 90.08C60.8212 89.68 60.6879 89.3933 60.5945 89.22C60.5945 89.22 60.6279 89.18 60.6945 89.1C60.7612 89.0067 60.8412 88.92 60.9345 88.84C61.0412 88.7467 61.1279 88.7 61.1945 88.7C61.8212 88.7 62.3812 88.6933 62.8745 88.68C63.3812 88.6533 63.8279 88.5733 64.2145 88.44C64.6145 88.2933 64.9679 88.0467 65.2745 87.7C65.5812 87.3533 65.8412 86.86 66.0545 86.22C66.1212 86.06 66.1612 85.9 66.1745 85.74C66.2012 85.5667 66.2145 85.4 66.2145 85.24C66.2145 84.7867 66.1012 84.3867 65.8745 84.04C65.6479 83.6933 65.3212 83.4933 64.8945 83.44C64.8412 83.4267 64.7812 83.42 64.7145 83.42C64.6479 83.42 64.5812 83.42 64.5145 83.42C64.2612 83.42 63.9812 83.4533 63.6745 83.52C63.3812 83.5867 63.1612 83.7133 63.0145 83.9C62.6812 84.34 62.3612 84.84 62.0545 85.4C61.7479 85.9467 61.4545 86.5067 61.1745 87.08C60.8945 87.64 60.6279 88.1667 60.3745 88.66C60.3079 88.7933 60.1812 89.0333 59.9945 89.38C59.8079 89.7133 59.6012 90.1 59.3745 90.54C59.1479 90.9667 58.9345 91.3933 58.7345 91.82C58.5345 92.2467 58.3745 92.6267 58.2545 92.96C58.1479 93.2933 58.1212 93.52 58.1745 93.64C58.1879 93.6533 58.1945 93.6733 58.1945 93.7C58.1945 93.74 58.1745 93.76 58.1345 93.76C58.0279 93.76 57.9212 93.7333 57.8145 93.68C57.7079 93.6267 57.5812 93.6 57.4345 93.6C57.3012 93.6 57.1679 93.6333 57.0345 93.7C56.9012 93.7533 56.7279 93.8533 56.5145 94C56.3012 94.1467 56.0612 94.2667 55.7945 94.36C55.7679 94.3733 55.7279 94.38 55.6745 94.38C55.5812 94.38 55.5079 94.3533 55.4545 94.3C55.4012 94.26 55.4012 94.2267 55.4545 94.2C55.7479 94.1467 56.0012 94.04 56.2145 93.88C56.4279 93.7067 56.6012 93.4933 56.7345 93.24C57.0145 92.7733 57.2879 92.3067 57.5545 91.84C57.8345 91.36 58.1012 90.88 58.3545 90.4C58.6612 89.8133 58.9745 89.2267 59.2945 88.64C59.6145 88.04 59.9345 87.4467 60.2545 86.86C60.5612 86.3133 60.8345 85.7867 61.0745 85.28C61.3145 84.7733 61.4945 84.4067 61.6145 84.18C61.7079 84.0067 61.8679 83.8533 62.0945 83.72C62.3345 83.5733 62.5679 83.46 62.7945 83.38C62.7145 83.38 62.6345 83.38 62.5545 83.38C62.4745 83.3667 62.3879 83.36 62.2945 83.36C61.8812 83.36 61.4279 83.3867 60.9345 83.44C60.4545 83.48 59.9812 83.5467 59.5145 83.64C59.0612 83.7333 58.6612 83.86 58.3145 84.02C57.9679 84.18 57.7345 84.3733 57.6145 84.6C57.5612 84.72 57.5145 84.84 57.4745 84.96C57.4345 85.08 57.4145 85.2 57.4145 85.32C57.4145 85.6267 57.5212 85.8467 57.7345 85.98C57.7479 85.98 57.7545 85.9933 57.7545 86.02C57.7545 86.0467 57.7279 86.0733 57.6745 86.1C57.6345 86.1267 57.6012 86.1333 57.5745 86.12C57.4412 86.0533 57.2879 85.8933 57.1145 85.64C56.9545 85.3733 56.8479 85.1533 56.7945 84.98C56.7545 84.82 56.7345 84.6733 56.7345 84.54C56.7345 84.1933 56.8479 83.9267 57.0745 83.74C57.3012 83.54 57.5879 83.4 57.9345 83.32C58.2812 83.2267 58.6345 83.1733 58.9945 83.16C59.3679 83.1333 59.6945 83.12 59.9745 83.12C60.4012 83.12 60.9079 83.12 61.4945 83.12C62.0812 83.1067 62.6212 83.1 63.1145 83.1C63.2345 83.1 63.3679 83.1 63.5145 83.1C63.6612 83.0867 63.8145 83.08 63.9745 83.08C64.3345 83.08 64.7079 83.1 65.0945 83.14C65.4812 83.18 65.8345 83.2667 66.1545 83.4C66.4745 83.5333 66.7212 83.74 66.8945 84.02C67.1212 84.3933 67.2345 84.82 67.2345 85.3C67.2345 86.0333 67.0412 86.6467 66.6545 87.14C66.5212 87.3133 66.3745 87.48 66.2145 87.64C66.0545 87.8 65.8679 87.9533 65.6545 88.1C65.3079 88.34 64.8945 88.5467 64.4145 88.72C63.9345 88.88 63.4345 89 62.9145 89.08C62.4079 89.16 61.9412 89.2133 61.5145 89.24C61.6879 89.6133 61.9479 90.1133 62.2945 90.74C62.6545 91.3667 63.0879 91.9933 63.5945 92.62C63.8612 92.9533 64.1345 93.1867 64.4145 93.32C64.6945 93.4533 64.9679 93.52 65.2345 93.52C65.6612 93.52 66.0612 93.3933 66.4345 93.14C66.8212 92.8867 67.1679 92.5933 67.4745 92.26C67.7945 91.9133 68.0479 91.6133 68.2345 91.36C68.2745 91.2933 68.3079 91.26 68.3345 91.26C68.3745 91.26 68.3945 91.3 68.3945 91.38C68.3945 91.4867 68.3545 91.5933 68.2745 91.7C67.6612 92.54 67.0745 93.2133 66.5145 93.72C65.9545 94.2133 65.3945 94.46 64.8345 94.46ZM69.2458 94.16C68.6991 94.16 68.3191 94.0533 68.1058 93.84C67.8924 93.6267 67.7858 93.3667 67.7858 93.06C67.7858 92.6733 67.8858 92.26 68.0858 91.82C68.2991 91.38 68.4991 91.0067 68.6858 90.7C68.8991 90.38 69.1858 90.0467 69.5458 89.7C69.9058 89.3533 70.2991 89.06 70.7258 88.82C71.1524 88.58 71.5658 88.46 71.9658 88.46C72.3124 88.46 72.5524 88.5467 72.6858 88.72C72.8191 88.88 72.8858 89.0733 72.8858 89.3C72.8858 89.7133 72.7591 90.0533 72.5058 90.32C72.2658 90.5867 71.9658 90.8067 71.6058 90.98C71.2458 91.14 70.8991 91.2733 70.5658 91.38C70.3658 91.4333 70.1324 91.4867 69.8658 91.54C69.5991 91.5933 69.3458 91.62 69.1058 91.62C69.0124 91.86 68.9391 92.0933 68.8858 92.32C68.8324 92.5467 68.8058 92.7533 68.8058 92.94C68.8058 93.1667 68.8591 93.3533 68.9658 93.5C69.0858 93.6467 69.2791 93.72 69.5458 93.72C69.6524 93.72 69.7791 93.7067 69.9258 93.68C70.0724 93.6533 70.2324 93.6133 70.4058 93.56C70.8058 93.4267 71.1991 93.2133 71.5858 92.92C71.9724 92.6267 72.3258 92.3133 72.6458 91.98C72.9791 91.6333 73.2324 91.3467 73.4058 91.12C73.4458 91.16 73.4658 91.2067 73.4658 91.26C73.4658 91.3267 73.4191 91.4333 73.3258 91.58C73.0591 91.9533 72.7124 92.34 72.2858 92.74C71.8591 93.14 71.3858 93.48 70.8658 93.76C70.3458 94.0267 69.8058 94.16 69.2458 94.16ZM69.2658 91.22C69.4391 91.2333 69.6324 91.2333 69.8458 91.22C70.0724 91.1933 70.2924 91.1467 70.5058 91.08C71.0524 90.92 71.4458 90.6667 71.6858 90.32C71.9391 89.96 72.0658 89.64 72.0658 89.36C72.0658 89.2 72.0324 89.0667 71.9658 88.96C71.8991 88.8533 71.7924 88.8 71.6458 88.8C71.2591 88.8 70.9124 88.9467 70.6058 89.24C70.2991 89.52 70.0324 89.8467 69.8058 90.22C69.5791 90.5933 69.3991 90.9267 69.2658 91.22ZM73.9263 94.16C73.4329 94.16 73.0863 94.0667 72.8863 93.88C72.6863 93.6933 72.5863 93.4533 72.5863 93.16C72.5863 92.7733 72.7129 92.3467 72.9663 91.88C73.2196 91.4 73.4596 91 73.6863 90.68C73.9129 90.3733 74.1663 90.0867 74.4463 89.82C74.7396 89.54 75.0529 89.3 75.3863 89.1C75.5996 88.9667 75.8863 88.8267 76.2463 88.68C76.6196 88.52 76.9329 88.44 77.1863 88.44C77.4929 88.44 77.7063 88.5133 77.8263 88.66C77.9463 88.7933 78.0063 88.96 78.0063 89.16C78.0063 89.32 77.9796 89.4867 77.9263 89.66C77.8729 89.82 77.8129 89.9733 77.7463 90.12C77.7063 90.2 77.6463 90.26 77.5663 90.3C77.4863 90.3267 77.4463 90.3133 77.4463 90.26C77.4463 90.1933 77.4529 90.1333 77.4663 90.08C77.4796 90.0267 77.4863 89.9667 77.4863 89.9C77.4863 89.6467 77.4263 89.4 77.3063 89.16C77.1996 88.9067 77.0329 88.78 76.8063 88.78C76.5663 88.78 76.3063 88.8667 76.0263 89.04C75.7463 89.2 75.5529 89.34 75.4463 89.46C75.0996 89.82 74.7596 90.2667 74.4263 90.8C74.1063 91.3333 73.8729 91.84 73.7262 92.32C73.6329 92.6 73.5863 92.84 73.5863 93.04C73.5863 93.2667 73.6463 93.4267 73.7663 93.52C73.8863 93.6133 74.0329 93.66 74.2063 93.66C74.3396 93.66 74.4796 93.64 74.6263 93.6C74.7863 93.56 74.9529 93.5133 75.1263 93.46C75.5263 93.3267 75.9263 93.12 76.3263 92.84C76.7396 92.5467 77.1129 92.24 77.4463 91.92C77.7796 91.5867 78.0329 91.3 78.2063 91.06C78.2329 91.0867 78.2463 91.1267 78.2463 91.18C78.2463 91.2467 78.2196 91.3267 78.1663 91.42C78.1129 91.5 78.0729 91.5667 78.0463 91.62C77.7663 91.9933 77.3996 92.38 76.9463 92.78C76.4929 93.1667 75.9996 93.4933 75.4663 93.76C74.9463 94.0267 74.4329 94.16 73.9263 94.16ZM82.0119 86.36C81.8252 86.36 81.6919 86.3 81.6119 86.18C81.5585 86.1133 81.5319 86.0267 81.5319 85.92C81.5319 85.7067 81.6319 85.5333 81.8319 85.4C81.9785 85.32 82.1119 85.28 82.2319 85.28C82.4319 85.28 82.5719 85.34 82.6519 85.46C82.7052 85.5267 82.7319 85.6133 82.7319 85.72C82.7319 85.9333 82.6252 86.1067 82.4119 86.24C82.2919 86.32 82.1585 86.36 82.0119 86.36ZM78.5319 94.06C78.3985 94.06 78.2852 94.0333 78.1919 93.98C78.1119 93.9267 78.0719 93.8267 78.0719 93.68C78.0719 93.4933 78.1185 93.2733 78.2119 93.02C78.3185 92.7667 78.4319 92.5133 78.5519 92.26C78.6852 92.0067 78.7852 91.8 78.8519 91.64C78.9452 91.4533 79.0585 91.2133 79.1919 90.92C79.3385 90.6133 79.4719 90.3267 79.5919 90.06C79.7252 89.78 79.8185 89.5867 79.8719 89.48C79.6852 89.68 79.4585 89.9333 79.1919 90.24C78.9385 90.5333 78.6985 90.82 78.4719 91.1C78.2452 91.38 78.0719 91.6 77.9519 91.76C77.9119 91.8133 77.8785 91.84 77.8519 91.84C77.8252 91.84 77.8119 91.8067 77.8119 91.74C77.8119 91.6333 77.8452 91.5333 77.9119 91.44C78.1652 91.12 78.4452 90.76 78.7519 90.36C79.0719 89.96 79.3585 89.5933 79.6119 89.26C79.8652 88.9133 80.0252 88.6867 80.0919 88.58C80.2385 88.5533 80.4519 88.5133 80.7319 88.46C81.0252 88.4067 81.2252 88.3333 81.3319 88.24C81.3719 88.2 81.4119 88.18 81.4519 88.18C81.4785 88.18 81.4919 88.2067 81.4919 88.26C81.5052 88.3 81.4919 88.3467 81.4519 88.4C81.3719 88.4933 81.2319 88.72 81.0319 89.08C80.8319 89.44 80.6185 89.84 80.3919 90.28C80.1785 90.7067 79.9785 91.0933 79.7919 91.44C79.6052 91.8 79.4452 92.1467 79.3119 92.48C79.1785 92.8133 79.1119 93.0533 79.1119 93.2C79.1119 93.3867 79.2052 93.48 79.3919 93.48C79.5652 93.48 79.7852 93.3733 80.0519 93.16C80.3319 92.9467 80.6119 92.6933 80.8919 92.4C81.1719 92.0933 81.4185 91.8133 81.6319 91.56C81.6985 91.48 81.7785 91.3867 81.8719 91.28C81.9785 91.16 82.0452 91.0867 82.0719 91.06C82.0985 91.0867 82.1119 91.1333 82.1119 91.2C82.0985 91.2933 82.0652 91.3867 82.0119 91.48C81.9585 91.56 81.9052 91.6333 81.8519 91.7C81.5719 92.0467 81.2652 92.4067 80.9319 92.78C80.5985 93.14 80.2319 93.4467 79.8319 93.7C79.4319 93.94 78.9985 94.06 78.5319 94.06ZM75.3595 101C74.8529 101 74.3662 100.88 73.8995 100.64C73.4195 100.413 73.0662 100.06 72.8395 99.58C72.7595 99.4067 72.7062 99.22 72.6795 99.02C72.6529 98.8333 72.6395 98.6467 72.6395 98.46V98.24C72.6395 98.1333 72.6529 98.0333 72.6795 97.94C72.7062 97.86 72.7729 97.82 72.8795 97.82C72.9195 97.82 72.9395 97.8333 72.9395 97.86C72.9395 97.94 72.9329 98.02 72.9195 98.1C72.8929 98.18 72.8795 98.2667 72.8795 98.36C72.8795 98.9733 73.0795 99.44 73.4795 99.76C73.8662 100.08 74.3529 100.24 74.9395 100.24C75.1795 100.24 75.4262 100.213 75.6795 100.16C75.9329 100.107 76.1729 100.033 76.3995 99.94C77.2395 99.58 77.9729 99.0733 78.5995 98.42C79.2262 97.7667 79.7729 97.0267 80.2395 96.2C80.7062 95.3733 81.1195 94.5267 81.4795 93.66C81.8662 92.7133 82.2329 91.78 82.5795 90.86C82.9395 89.9267 83.3395 89.0133 83.7795 88.12C84.1929 87.2933 84.6329 86.6733 85.0995 86.26C85.5662 85.8467 86.0329 85.64 86.4995 85.64C86.6195 85.64 86.7329 85.6733 86.8395 85.74C86.9595 85.8067 87.0129 85.9133 86.9995 86.06L86.9595 86.62C86.9595 86.66 86.9329 86.68 86.8795 86.68C86.8795 86.68 86.8729 86.68 86.8595 86.68C86.8595 86.68 86.8595 86.6733 86.8595 86.66C86.8595 86.5 86.7995 86.3933 86.6795 86.34C86.5729 86.2733 86.4662 86.24 86.3595 86.24C85.9062 86.24 85.4995 86.4 85.1395 86.72C84.7929 87.0267 84.4862 87.4267 84.2195 87.92C83.9529 88.4133 83.7262 88.9333 83.5395 89.48C83.3529 90.0133 83.1995 90.5067 83.0795 90.96C83.1729 90.88 83.3395 90.7133 83.5795 90.46C83.8329 90.2067 84.1262 89.9333 84.4595 89.64C84.7929 89.3467 85.1329 89.0933 85.4795 88.88C85.8262 88.6667 86.1462 88.56 86.4395 88.56C86.6129 88.56 86.7129 88.64 86.7395 88.8C86.7795 88.9467 86.7862 89.0867 86.7595 89.22C86.6929 89.7133 86.5262 90.2467 86.2595 90.82C85.9929 91.3933 85.6462 91.94 85.2195 92.46C84.8062 92.9667 84.3395 93.38 83.8195 93.7C83.3129 94.02 82.7795 94.18 82.2195 94.18C82.1529 94.18 82.0595 94.1733 81.9395 94.16C81.8329 94.16 81.7662 94.1467 81.7395 94.12C81.4595 94.96 81.0995 95.82 80.6595 96.7C80.2195 97.58 79.6929 98.3733 79.0795 99.08C78.4529 99.8 77.7129 100.34 76.8595 100.7C76.4062 100.9 75.9062 101 75.3595 101ZM82.5195 93.84C82.7195 93.84 82.9462 93.76 83.1995 93.6C83.4662 93.4267 83.6662 93.2733 83.7995 93.14C83.9595 92.9933 84.1462 92.7667 84.3595 92.46C84.5862 92.14 84.8062 91.7933 85.0195 91.42C85.2462 91.0467 85.4329 90.6867 85.5795 90.34C85.7262 89.9933 85.7995 89.7133 85.7995 89.5C85.7995 89.4333 85.7862 89.3733 85.7595 89.32C85.7329 89.2667 85.6862 89.24 85.6195 89.24C85.4995 89.24 85.3395 89.3133 85.1395 89.46C84.9395 89.6067 84.7262 89.7867 84.4995 90C84.2862 90.2 84.0862 90.4 83.8995 90.6C83.7129 90.7867 83.5795 90.9267 83.4995 91.02C83.3662 91.18 83.1862 91.4133 82.9595 91.72C82.7329 92.0267 82.5329 92.34 82.3595 92.66C82.1862 92.9667 82.0995 93.2267 82.0995 93.44C82.0995 93.7067 82.2395 93.84 82.5195 93.84ZM87.9372 94.16C87.3905 94.16 87.0105 94.0533 86.7972 93.84C86.5839 93.6267 86.4772 93.3667 86.4772 93.06C86.4772 92.6733 86.5772 92.26 86.7772 91.82C86.9905 91.38 87.1905 91.0067 87.3772 90.7C87.5905 90.38 87.8772 90.0467 88.2372 89.7C88.5972 89.3533 88.9905 89.06 89.4172 88.82C89.8439 88.58 90.2572 88.46 90.6572 88.46C91.0039 88.46 91.2439 88.5467 91.3772 88.72C91.5105 88.88 91.5772 89.0733 91.5772 89.3C91.5772 89.7133 91.4505 90.0533 91.1972 90.32C90.9572 90.5867 90.6572 90.8067 90.2972 90.98C89.9372 91.14 89.5905 91.2733 89.2572 91.38C89.0572 91.4333 88.8239 91.4867 88.5572 91.54C88.2905 91.5933 88.0372 91.62 87.7972 91.62C87.7039 91.86 87.6305 92.0933 87.5772 92.32C87.5239 92.5467 87.4972 92.7533 87.4972 92.94C87.4972 93.1667 87.5505 93.3533 87.6572 93.5C87.7772 93.6467 87.9705 93.72 88.2372 93.72C88.3439 93.72 88.4705 93.7067 88.6172 93.68C88.7639 93.6533 88.9239 93.6133 89.0972 93.56C89.4972 93.4267 89.8905 93.2133 90.2772 92.92C90.6639 92.6267 91.0172 92.3133 91.3372 91.98C91.6705 91.6333 91.9239 91.3467 92.0972 91.12C92.1372 91.16 92.1572 91.2067 92.1572 91.26C92.1572 91.3267 92.1105 91.4333 92.0172 91.58C91.7505 91.9533 91.4039 92.34 90.9772 92.74C90.5505 93.14 90.0772 93.48 89.5572 93.76C89.0372 94.0267 88.4972 94.16 87.9372 94.16ZM87.9572 91.22C88.1305 91.2333 88.3239 91.2333 88.5372 91.22C88.7639 91.1933 88.9839 91.1467 89.1972 91.08C89.7439 90.92 90.1372 90.6667 90.3772 90.32C90.6305 89.96 90.7572 89.64 90.7572 89.36C90.7572 89.2 90.7239 89.0667 90.6572 88.96C90.5905 88.8533 90.4839 88.8 90.3372 88.8C89.9505 88.8 89.6039 88.9467 89.2972 89.24C88.9905 89.52 88.7239 89.8467 88.4972 90.22C88.2705 90.5933 88.0905 90.9267 87.9572 91.22Z" fill="#3354C9"/>
<rect x="33.5" y="50.5" width="61" height="7" fill="#D9C6BC" stroke="black"/>
<rect x="33.5" y="57.5" width="61" height="7" fill="#D9C6BC" stroke="black"/>
<rect x="33.5" y="64.5" width="61" height="7" fill="#D9C6BC" stroke="black"/>
<path d="M34.5855 49.75L39 40.1924L43.4145 49.75H34.5855Z" fill="#CA8B8B" stroke="black"/>
<path d="M51.5855 49.75L56 40.1924L60.4145 49.75H51.5855Z" fill="#CA8B8B" stroke="black"/>
<path d="M68.5855 49.75L73 40.1924L77.4145 49.75H68.5855Z" fill="#CA8B8B" stroke="black"/>
<path d="M85.5855 49.75L90 40.1924L94.4145 49.75H85.5855Z" fill="#CA8B8B" stroke="black"/>
<path d="M44.2227 49.5L47.5 34.3629L50.7773 49.5H44.2227Z" fill="#05A47E" stroke="black"/>
<path d="M78.2227 49.5L81.5 34.3629L84.7773 49.5H78.2227Z" fill="#05A47E" stroke="black"/>
<path d="M61.2227 49.5L64.5 34.3629L67.7773 49.5H61.2227Z" fill="#05A47E" stroke="black"/>
<circle cx="47.5" cy="29.5" r="2" fill="#D9D9D9" stroke="black"/>
<circle cx="64.5" cy="29.5" r="2" fill="#D9D9D9" stroke="black"/>
<circle cx="81.5" cy="29.5" r="2" fill="#D9D9D9" stroke="black"/>
</svg>
